<svg xmlns="http://www.w3.org/2000/svg" xmlns:xlink="http://www.w3.org/1999/xlink" contentStyleType="text/css" data-diagram-type="SEQUENCE" height="382px" preserveAspectRatio="none" style="width:530px;height:382px;background:#FFFFFF;" version="1.1" viewBox="0 0 530 382" width="530px" zoomAndPan="magnify"><defs/><g><g><title>CoffeeMaking</title><rect fill="#000000" fill-opacity="0.00000" height="311.3281" width="8" x="55.9199" y="36.2969"/><line style="stroke:#181818;stroke-width:0.5;stroke-dasharray:5,5;" x1="59" x2="59" y1="36.2969" y2="347.625"/></g><g><title>GVL</title><rect fill="#000000" fill-opacity="0.00000" height="311.3281" width="8" x="265.8682" y="36.2969"/><line style="stroke:#181818;stroke-width:0.5;stroke-dasharray:5,5;" x1="269.7554" x2="269.7554" y1="36.2969" y2="347.625"/></g><g><title>ToastMaking</title><rect fill="#000000" fill-opacity="0.00000" height="311.3281" width="8" x="469.1641" y="36.2969"/><line style="stroke:#181818;stroke-width:0.5;stroke-dasharray:5,5;" x1="472.7168" x2="472.7168" y1="36.2969" y2="347.625"/></g><g class="participant participant-head" data-participant="CoffeeMaking"><rect fill="#E2E2F0" height="30.2969" rx="2.5" ry="2.5" style="stroke:#181818;stroke-width:0.5;" width="109.8398" x="5" y="5"/><text fill="#000000" font-family="sans-serif" font-size="14" lengthAdjust="spacing" textLength="95.8398" x="12" y="24.9951">CoffeeMaking</text></g><g class="participant participant-tail" data-participant="CoffeeMaking"><rect fill="#E2E2F0" height="30.2969" rx="2.5" ry="2.5" style="stroke:#181818;stroke-width:0.5;" width="109.8398" x="5" y="346.625"/><text fill="#000000" font-family="sans-serif" font-size="14" lengthAdjust="spacing" textLength="95.8398" x="12" y="366.6201">CoffeeMaking</text></g><g class="participant participant-head" data-participant="GVL"><rect fill="#E2E2F0" height="30.2969" rx="2.5" ry="2.5" style="stroke:#181818;stroke-width:0.5;" width="42.2256" x="248.7554" y="5"/><text fill="#000000" font-family="sans-serif" font-size="14" lengthAdjust="spacing" textLength="28.2256" x="255.7554" y="24.9951">GVL</text></g><g class="participant participant-tail" data-participant="GVL"><rect fill="#E2E2F0" height="30.2969" rx="2.5" ry="2.5" style="stroke:#181818;stroke-width:0.5;" width="42.2256" x="248.7554" y="346.625"/><text fill="#000000" font-family="sans-serif" font-size="14" lengthAdjust="spacing" textLength="28.2256" x="255.7554" y="366.6201">GVL</text></g><g class="participant participant-head" data-participant="ToastMaking"><rect fill="#E2E2F0" height="30.2969" rx="2.5" ry="2.5" style="stroke:#181818;stroke-width:0.5;" width="102.8945" x="421.7168" y="5"/><text fill="#000000" font-family="sans-serif" font-size="14" lengthAdjust="spacing" textLength="88.8945" x="428.7168" y="24.9951">ToastMaking</text></g><g class="participant participant-tail" data-participant="ToastMaking"><rect fill="#E2E2F0" height="30.2969" rx="2.5" ry="2.5" style="stroke:#181818;stroke-width:0.5;" width="102.8945" x="421.7168" y="346.625"/><text fill="#000000" font-family="sans-serif" font-size="14" lengthAdjust="spacing" textLength="88.8945" x="428.7168" y="366.6201">ToastMaking</text></g><g class="message" data-participant-1="CoffeeMaking" data-participant-2="GVL"><polygon fill="#181818" points="257.8682,63.4297,267.8682,67.4297,257.8682,71.4297,261.8682,67.4297" style="stroke:#181818;stroke-width:1;"/><line style="stroke:#181818;stroke-width:1;" x1="59.9199" x2="263.8682" y1="67.4297" y2="67.4297"/><text fill="#000000" font-family="sans-serif" font-size="13" lengthAdjust="spacing" textLength="185.9482" x="66.9199" y="62.3638">CoffeeState = HeatingWater</text></g><g class="message" data-participant-1="GVL" data-participant-2="ToastMaking"><polygon fill="#181818" points="461.1641,92.5625,471.1641,96.5625,461.1641,100.5625,465.1641,96.5625" style="stroke:#181818;stroke-width:1;"/><line style="stroke:#181818;stroke-width:1;" x1="269.8682" x2="467.1641" y1="96.5625" y2="96.5625"/><text fill="#000000" font-family="sans-serif" font-size="13" lengthAdjust="spacing" textLength="104.019" x="276.8682" y="91.4966">CoffeeState = 1</text></g><g class="message" data-participant-1="ToastMaking" data-participant-2="GVL"><polygon fill="#181818" points="280.8682,121.6953,270.8682,125.6953,280.8682,129.6953,276.8682,125.6953" style="stroke:#181818;stroke-width:1;"/><line style="stroke:#181818;stroke-width:1;" x1="274.8682" x2="472.1641" y1="125.6953" y2="125.6953"/><text fill="#000000" font-family="sans-serif" font-size="13" lengthAdjust="spacing" textLength="179.2959" x="286.8682" y="120.6294">ToastState = LoadingBread</text></g><g class="message" data-participant-1="ToastMaking" data-participant-2="GVL"><polygon fill="#181818" points="280.8682,150.8281,270.8682,154.8281,280.8682,158.8281,276.8682,154.8281" style="stroke:#181818;stroke-width:1;"/><line style="stroke:#181818;stroke-width:1;" x1="274.8682" x2="472.1641" y1="154.8281" y2="154.8281"/><text fill="#000000" font-family="sans-serif" font-size="13" lengthAdjust="spacing" textLength="162.4111" x="286.8682" y="149.7622">ToastState = LeverDown</text></g><g class="message" data-participant-1="GVL" data-participant-2="CoffeeMaking"><polygon fill="#181818" points="70.9199,179.9609,60.9199,183.9609,70.9199,187.9609,66.9199,183.9609" style="stroke:#181818;stroke-width:1;"/><line style="stroke:#181818;stroke-width:1;" x1="64.9199" x2="268.8682" y1="183.9609" y2="183.9609"/><text fill="#000000" font-family="sans-serif" font-size="13" lengthAdjust="spacing" textLength="127.4038" x="76.9199" y="178.895">ToastState = 1 or 2</text></g><g class="message" data-participant-1="CoffeeMaking" data-participant-2="GVL"><polygon fill="#181818" points="257.8682,209.0938,267.8682,213.0938,257.8682,217.0938,261.8682,213.0938" style="stroke:#181818;stroke-width:1;"/><line style="stroke:#181818;stroke-width:1;" x1="59.9199" x2="263.8682" y1="213.0938" y2="213.0938"/><text fill="#000000" font-family="sans-serif" font-size="13" lengthAdjust="spacing" textLength="107.9229" x="66.9199" y="208.0278">WaterHot = true</text></g><g class="message" data-participant-1="CoffeeMaking" data-participant-2="GVL"><polygon fill="#181818" points="257.8682,238.2266,267.8682,242.2266,257.8682,246.2266,261.8682,242.2266" style="stroke:#181818;stroke-width:1;"/><line style="stroke:#181818;stroke-width:1;" x1="59.9199" x2="263.8682" y1="242.2266" y2="242.2266"/><text fill="#000000" font-family="sans-serif" font-size="13" lengthAdjust="spacing" textLength="135.6621" x="66.9199" y="237.1606">GrindingDone = true</text></g><g class="message" data-participant-1="CoffeeMaking" data-participant-2="GVL"><polygon fill="#181818" points="257.8682,267.3594,267.8682,271.3594,257.8682,275.3594,261.8682,271.3594" style="stroke:#181818;stroke-width:1;"/><line style="stroke:#181818;stroke-width:1;" x1="59.9199" x2="263.8682" y1="271.3594" y2="271.3594"/><text fill="#000000" font-family="sans-serif" font-size="13" lengthAdjust="spacing" textLength="133.0342" x="66.9199" y="266.2935">BrewingDone = true</text></g><g class="message" data-participant-1="ToastMaking" data-participant-2="GVL"><polygon fill="#181818" points="280.8682,296.4922,270.8682,300.4922,280.8682,304.4922,276.8682,300.4922" style="stroke:#181818;stroke-width:1;"/><line style="stroke:#181818;stroke-width:1;" x1="274.8682" x2="472.1641" y1="300.4922" y2="300.4922"/><text fill="#000000" font-family="sans-serif" font-size="13" lengthAdjust="spacing" textLength="165.9722" x="286.8682" y="295.4263">ToastState = ToastReady</text></g><g class="message" data-participant-1="CoffeeMaking" data-participant-2="GVL"><polygon fill="#181818" points="257.8682,325.625,267.8682,329.625,257.8682,333.625,261.8682,329.625" style="stroke:#181818;stroke-width:1;"/><line style="stroke:#181818;stroke-width:1;" x1="59.9199" x2="263.8682" y1="329.625" y2="329.625"/><text fill="#000000" font-family="sans-serif" font-size="13" lengthAdjust="spacing" textLength="178.8706" x="66.9199" y="324.5591">CoffeeState = CoffeeReady</text></g><!--SRC=[ZP2z3i8m38JtF4LUWA6CI310fNOe2o2OBUgY22ckZA7YxN53YqB5JyVBVRdSfGOMTtGrUB4hgYh4DPoTFvawCh9zyQPt11VfE1FVifD52y-wgAs0e9tR747KFQXYetwBHHb3F36H-OeCPprI49HgBXcX747Z3Jcbnfl-zRZq04uiiPr-sHKcv2JA2L_nCvInyssxb3p-1BL-C-3-RWbYexFlOtx-gGB-0000]--></g></svg>